<svg xmlns="http://www.w3.org/2000/svg" xmlns:xlink="http://www.w3.org/1999/xlink" version="1.1" id="Your_Icon" x="0px" y="0px" width="100px" height="100px" viewBox="0 0 100 100" enable-background="new 0 0 100 100" xml:space="preserve">
<path d="M76,45.937c0-13.686-10.576-24.894-24-25.916V16c0-1.104-0.896-2-2-2s-2,0.896-2,2v4.021c-13.424,1.022-24,12.23-24,25.916  c0.821,0,1.63-0.046,2.431-0.121C25.319,52.234,26.686,58.688,30,64c0.989-0.322,1.955-0.708,2.898-1.145  C33.365,67.66,35.146,72.209,38,76c1.211-0.515,2.377-1.126,3.495-1.816C43.162,78.893,46.14,82.981,50,86  c3.86-3.02,6.822-7.117,8.488-11.827C59.611,74.867,60.783,75.482,62,76c2.854-3.791,4.636-8.339,5.103-13.145  C68.045,63.293,69.011,63.678,70,64c3.313-5.312,4.681-11.766,3.568-18.184C74.37,45.89,75.18,45.937,76,45.937z M50,23.937  c10.607,0,19.486,7.546,21.548,17.552c-3.24-0.664-6.282-2.056-8.962-4.122l-3.521-2.713l-2.329,3.785  c-1.718,2.793-4.022,5.158-6.736,6.932c-2.714-1.773-5.019-4.139-6.737-6.932l-2.329-3.786l-3.521,2.714  c-2.679,2.065-5.722,3.458-8.962,4.122C30.514,31.482,39.392,23.937,50,23.937z M53.596,48.169c0.582,1.598,1.311,3.099,2.154,4.505  c-0.644,4.487-2.627,8.639-5.75,11.936c-3.123-3.297-5.106-7.448-5.75-11.937c0.844-1.405,1.573-2.906,2.154-4.504  c0.044-0.122,0.075-0.246,0.117-0.368C47.619,48.619,48.776,49.362,50,50c1.224-0.638,2.381-1.381,3.479-2.199  C53.521,47.923,53.552,48.047,53.596,48.169z M31.844,58.934c-1.9-4.381-2.307-9.22-1.177-13.869  c3.382-0.897,6.496-2.452,9.19-4.529c0.968,1.573,2.102,3.03,3.37,4.359c-0.166,0.64-0.352,1.277-0.582,1.907  C40.7,52.146,36.847,56.434,31.844,58.934z M39.395,70.793c-1.706-3.147-2.575-6.626-2.609-10.163  c1.555-1.076,2.999-2.322,4.298-3.729c0.917,3.093,2.393,5.94,4.312,8.436C43.764,67.498,41.741,69.353,39.395,70.793z M50,80.609  c-2.416-2.549-4.139-5.612-5.098-8.945c1.155-1.004,2.22-2.117,3.193-3.319C48.705,68.925,49.336,69.48,50,70  c0.664-0.52,1.295-1.076,1.904-1.656c0.973,1.201,2.038,2.314,3.193,3.319C54.138,74.995,52.416,78.06,50,80.609z M60.605,70.793  c-2.346-1.439-4.367-3.294-6-5.455c1.917-2.494,3.398-5.34,4.314-8.433c1.299,1.405,2.741,2.65,4.295,3.725  C63.181,64.167,62.312,67.646,60.605,70.793z M68.156,58.934c-5.003-2.5-8.856-6.788-10.802-12.133  c-0.229-0.63-0.416-1.267-0.581-1.907c1.269-1.329,2.402-2.786,3.37-4.359c2.694,2.077,5.809,3.632,9.19,4.529  C70.463,49.714,70.057,54.553,68.156,58.934z"/>
</svg>