<svg xmlns="http://www.w3.org/2000/svg" xmlns:xlink="http://www.w3.org/1999/xlink" version="1.1" id="Layer_1" x="0px" y="0px" width="100px" height="100px" viewBox="0 0 100 100" enable-background="new 0 0 100 100" xml:space="preserve">
<path d="M55.488,6.179c0.435-0.77,1.146-1.323,1.999-1.56c0.287-0.079,0.584-0.12,0.882-0.12c1.281,0,2.46,0.75,3,1.91l0.047,0.1  l1.185-0.715c0.768-0.46,1.015-1.452,0.553-2.216l-1.458-2.42c-0.458-0.765-1.449-1.012-2.214-0.552l-6.112,3.677  c-0.603,0.362-0.881,1.053-0.748,1.703c-0.959,0.69-1.915,1.38-2.872,2.07c-0.381,0.285-0.696,0.661-0.901,1.052  c-0.179-0.163-0.418-0.213-0.6-0.104c-0.233,0.14-0.281,0.491-0.108,0.781l1.042,1.727c0.174,0.29,0.505,0.412,0.737,0.272  c0.183-0.109,0.25-0.344,0.189-0.58c0.441,0.002,0.922-0.098,1.352-0.303c1.058-0.522,2.114-1.044,3.174-1.565  c0.235,0.194,0.52,0.311,0.818,0.35l-0.275-0.99C54.942,7.842,55.052,6.949,55.488,6.179z"/>
<circle cx="40.497" cy="15.992" r="7.526"/>
<path d="M77.546,96.201l-0.73-27.065c-0.067-1.148-0.593-2.284-1.551-3.076l-0.646-0.535L57.527,51.373  c-0.106-0.087-0.852-0.636-0.97-0.72c-0.381-5.726-2.321-14.265-4.587-19.322c-0.133-0.296-0.264-0.576-0.394-0.843l13.542-2.391  l0.327-0.056c0.303-0.056,0.603-0.15,0.892-0.286c1.822-0.852,2.609-3.019,1.756-4.84L60.555,6.791  c-0.398-0.853-1.259-1.392-2.186-1.392c-0.214,0-0.43,0.029-0.644,0.088c-1.284,0.355-2.037,1.685-1.683,2.969l3.519,12.717  c-7.914,1.398-16.028,2.128-23.221,6.04c-1.942,1.055-3.789,2.419-5.37,3.967c-2.41,2.358-4.941,4.631-7.194,7.143l-0.476,0.529  c-0.749,0.839-1.057,2.038-0.708,3.194l5.25,17.435c0.387,1.292,1.687,2.117,3.047,1.884c1.471-0.254,2.457-1.652,2.203-3.122  L29.69,43.271c0.787-0.604,4.832-3.782,5.699-4.544c4.606,12.876,7.292,28.992,7.292,40.821c0,0.17-0.248,1.565-0.42,1.681  c-0.001,0-16.666,12.445-16.666,12.445c-1.342,0.889-1.845,2.659-1.114,4.14c0.793,1.609,2.741,2.269,4.349,1.476l19.898-11.552  c1.279-0.642,1.792-1.486,2.342-3.115c0,0,0.156-0.855,0.201-1.023c2.564-9.966,3.555-17.36,3.555-17.36l12.371,6.779l3.913,23.951  c0.291,1.581,1.72,2.741,3.369,2.652C76.271,99.522,77.645,97.992,77.546,96.201z"/>
</svg>