<svg xmlns="http://www.w3.org/2000/svg" xmlns:xlink="http://www.w3.org/1999/xlink" version="1.1" x="0px" y="0px" width="100px" height="100px" viewBox="0 0 100 100" enable-background="new 0 0 100 100" xml:space="preserve">
<g id="Captions">
</g>
<g id="Your_Icon">
	<path d="M72.544,39.664C78.679,19.947,74.83,9.559,74.83,9.559l-2.661,0.006c0.41,2.724,1.838,15.13-3.135,31.111   c-3.214,10.292-3.751,18.389-4.906,29.427c-0.496,4.836,1.116,15.801,1.661,18.396c0.408,1.913-0.241,3.023-0.241,3.023   l-11.104,0.023l-4.247,0.009l-10.761,0.023c0,0-0.672-1.059-0.277-2.893c0.541-2.594,2.15-13.622,1.606-18.53   c-1.188-11.034-2.485-19.127-5.73-29.403c-4.999-15.793-3.527-28.192-3.07-31.101l-2.758,0.006c0,0-3.801,10.408,2.429,30.09   c3.527,11.171,5.205,19.969,6.497,31.965c0.591,5.336-1.158,17.324-1.746,20.145C35.956,93.85,36.687,95,36.687,95l13.209-0.025   l4.617-0.01l13.188-0.025c0,0,0.705-1.207,0.262-3.287c-0.592-2.82-2.345-14.74-1.806-19.998   C67.413,59.654,69.05,50.853,72.544,39.664z"/>
	<path d="M70.153,18.002l-36.206,0.077c-0.209,2.49-0.417,10.572,3.713,23.619c2.894,9.16,4.102,16.908,5.21,27.194   c0.51,4.601-0.973,16.922-1.465,19.277c-0.131,0.611-0.099,1.083-0.034,1.402l9.009-0.019l3.831-0.008l9.303-0.02   c0.063-0.343,0.096-0.856-0.046-1.52c-0.489-2.328-1.986-14.52-1.516-19.108c0.138-1.314,0.266-2.589,0.39-3.835   c0.821-8.196,1.529-15.274,4.076-23.429C70.478,28.585,70.339,20.512,70.153,18.002z"/>
</g>
</svg>