<svg xmlns="http://www.w3.org/2000/svg" xmlns:xlink="http://www.w3.org/1999/xlink" version="1.1" id="Your_Icon" x="0px" y="0px" width="100px" height="100px" viewBox="0 0 100 100" enable-background="new 0 0 100 100" xml:space="preserve">
<path fill="#000000" d="M84.768,47.587v-0.01l-0.039-0.022c-0.124-0.088-0.259-0.161-0.396-0.229l-1.525-0.884  c-0.212-1.968-0.601-3.883-1.142-5.732l0.954-1.225c0.156-0.158,0.289-0.334,0.405-0.521l0.022-0.029l-0.003-0.007  c0.479-0.79,0.596-1.785,0.216-2.703s-1.166-1.539-2.062-1.759l-0.004-0.01l-0.05-0.007c-0.134-0.03-0.271-0.042-0.409-0.054  l-1.783-0.238c-0.941-1.717-2.034-3.338-3.255-4.853l0.415-1.505c0.084-0.204,0.138-0.415,0.174-0.629l0.012-0.041l-0.007-0.007  c0.141-0.912-0.132-1.875-0.835-2.578s-1.666-0.975-2.578-0.835l-0.008-0.008l-0.053,0.014c-0.124,0.021-0.244,0.06-0.365,0.097  l-1.778,0.473c-1.515-1.219-3.137-2.311-4.854-3.251l-0.19-1.54c-0.001-0.218-0.031-0.433-0.079-0.643l-0.006-0.045l-0.01-0.004  c-0.22-0.896-0.84-1.682-1.757-2.062c-0.918-0.381-1.913-0.264-2.702,0.215l-0.01-0.004l-0.039,0.03  c-0.116,0.073-0.221,0.16-0.326,0.249l-1.435,1.097c-1.85-0.54-3.764-0.927-5.731-1.137l-0.768-1.353  c-0.085-0.203-0.196-0.39-0.321-0.567l-0.021-0.037h-0.01C51.867,14.489,50.994,14,50,14c-0.993,0-1.867,0.489-2.413,1.232h-0.012  l-0.028,0.048c-0.071,0.101-0.128,0.211-0.187,0.322l-0.923,1.592c-1.968,0.211-3.882,0.6-5.73,1.142l-1.222-0.953  c-0.159-0.158-0.336-0.291-0.523-0.408l-0.029-0.022l-0.008,0.003c-0.789-0.479-1.784-0.596-2.701-0.214  c-0.918,0.38-1.539,1.166-1.758,2.062l-0.011,0.004l-0.007,0.055c-0.027,0.12-0.037,0.243-0.049,0.365l-0.243,1.821  c-1.717,0.941-3.338,2.034-4.852,3.255l-1.503-0.415c-0.205-0.084-0.417-0.139-0.633-0.175l-0.038-0.011l-0.006,0.006  c-0.913-0.14-1.876,0.132-2.579,0.835c-0.703,0.703-0.975,1.666-0.835,2.578l-0.009,0.009l0.015,0.056  c0.02,0.113,0.056,0.222,0.088,0.332l0.48,1.809c-1.219,1.515-2.311,3.136-3.25,4.854l-1.533,0.189  c-0.223,0.001-0.442,0.032-0.657,0.081l-0.039,0.005l-0.003,0.008c-0.896,0.22-1.681,0.84-2.061,1.758  c-0.38,0.917-0.263,1.912,0.215,2.701l-0.005,0.012l0.036,0.047c0.062,0.097,0.137,0.184,0.209,0.273l1.132,1.479  c-0.54,1.85-0.928,3.763-1.137,5.731l-1.35,0.766c-0.206,0.086-0.396,0.198-0.575,0.326l-0.034,0.019v0.009  C14.489,48.133,14,49.007,14,50c0,0.994,0.489,1.867,1.232,2.413v0.013l0.051,0.029c0.091,0.064,0.19,0.114,0.289,0.168l1.623,0.942  c0.211,1.967,0.6,3.88,1.141,5.729l-0.955,1.224c-0.155,0.156-0.288,0.332-0.403,0.517l-0.027,0.034l0.004,0.009  c-0.478,0.789-0.594,1.782-0.214,2.7c0.38,0.918,1.166,1.54,2.062,1.76l0.004,0.01l0.103,0.014c0.138,0.028,0.278,0.047,0.419,0.056  l1.721,0.229c0.941,1.717,2.033,3.337,3.254,4.851l-0.416,1.504c-0.083,0.205-0.138,0.417-0.174,0.632l-0.011,0.04l0.007,0.007  c-0.14,0.912,0.132,1.875,0.835,2.577c0.585,0.586,1.354,0.879,2.121,0.879c0.153,0,0.305-0.021,0.456-0.044l0.009,0.009  l0.055-0.015c0.118-0.021,0.232-0.058,0.348-0.093l1.793-0.477c1.515,1.219,3.137,2.312,4.854,3.251l0.19,1.539  c0.001,0.219,0.032,0.435,0.08,0.646l0.005,0.043l0.009,0.004c0.22,0.896,0.84,1.683,1.758,2.062  c0.375,0.155,0.764,0.229,1.147,0.229c0.554,0,1.091-0.159,1.558-0.443l0.006,0.003l0.029-0.022  c0.157-0.099,0.305-0.211,0.442-0.338l1.33-1.016c1.849,0.54,3.762,0.927,5.73,1.137l0.768,1.354  c0.085,0.202,0.196,0.391,0.322,0.567l0.021,0.037h0.01C48.133,85.512,49.006,86,50,86c0.994,0,1.867-0.488,2.413-1.232h0.012  l0.027-0.047c0.073-0.104,0.133-0.219,0.192-0.333l0.918-1.582c1.967-0.211,3.881-0.6,5.729-1.142l1.266,0.987  c0.15,0.144,0.313,0.271,0.488,0.381l0.021,0.016l0.005-0.002c0.467,0.284,1.005,0.443,1.559,0.443c0.383,0,0.771-0.074,1.147-0.229  c0.918-0.38,1.537-1.166,1.757-2.062l0.012-0.005l0.008-0.058c0.025-0.114,0.035-0.232,0.047-0.35l0.245-1.835  c1.716-0.941,3.336-2.033,4.85-3.254l1.549,0.429c0.188,0.072,0.38,0.125,0.575,0.158l0.052,0.015l0.009-0.009  c0.15,0.023,0.303,0.044,0.455,0.044c0.768,0,1.535-0.293,2.121-0.879c0.702-0.702,0.975-1.665,0.835-2.576l0.008-0.008  l-0.013-0.049c-0.024-0.139-0.065-0.275-0.109-0.41l-0.463-1.738c1.22-1.515,2.312-3.137,3.252-4.854l1.556-0.193  c0.207-0.002,0.409-0.031,0.609-0.075l0.062-0.008l0.003-0.007c0.896-0.219,1.683-0.841,2.063-1.76  c0.38-0.918,0.263-1.912-0.215-2.701l0.005-0.011l-0.034-0.045c-0.067-0.105-0.147-0.2-0.227-0.297l-1.116-1.459  c0.54-1.849,0.927-3.763,1.137-5.73l1.361-0.771c0.197-0.084,0.38-0.191,0.553-0.312l0.044-0.025v-0.012  C85.512,51.867,86,50.994,86,50C86,49.006,85.512,48.133,84.768,47.587z M73.743,40.163C68.795,32.258,60.012,27,50,27  c-10.014,0-18.796,5.258-23.744,13.164c-1.315,2.101-2.153,1.796-1.202-0.498C29.109,29.882,38.75,23,50,23  c11.25,0,20.892,6.883,24.946,16.667C75.897,41.961,75.059,42.264,73.743,40.163z"/>
</svg>